<svg xmlns="http://www.w3.org/2000/svg" width="61.246" height="51.038" viewBox="0 0 61.246 51.038">
  <g id="Group_176454" data-name="Group 176454" transform="translate(-1215.877 -704.981)">
    <g id="camera" transform="translate(1215.877 662.314)">
      <g id="Group_172848" data-name="Group 172848" transform="translate(0 42.667)">
        <g id="Group_172847" data-name="Group 172847">
          <circle id="Ellipse_184" data-name="Ellipse 184" cx="12.76" cy="12.76" r="12.76" transform="translate(17.863 15.311)"/>
          <path id="Path_763" data-name="Path 763" d="M56.142,50.323H48.049A3.807,3.807,0,0,1,45.341,49.2l-4.665-4.665a6.34,6.34,0,0,0-4.512-1.869H25.082a6.34,6.34,0,0,0-4.512,1.869L15.9,49.2A3.807,3.807,0,0,1,13.2,50.323H5.1a5.109,5.109,0,0,0-5.1,5.1V88.6a5.109,5.109,0,0,0,5.1,5.1H56.142a5.109,5.109,0,0,0,5.1-5.1V55.426A5.109,5.109,0,0,0,56.142,50.323ZM30.623,86.049A15.311,15.311,0,1,1,45.934,70.738,15.328,15.328,0,0,1,30.623,86.049ZM51.038,63.082A2.552,2.552,0,1,1,53.59,60.53,2.555,2.555,0,0,1,51.038,63.082Z" transform="translate(0 -42.667)"/>
        </g>
      </g>
    </g>
    <g id="plus" transform="translate(1237.747 724.493)">
      <path id="Path_764" data-name="Path 764" d="M8.753,0a8.753,8.753,0,1,0,8.753,8.753A8.763,8.763,0,0,0,8.753,0Zm0,0" fill="#fe0000"/>
      <path id="Path_765" data-name="Path 765" d="M131.056,127.956h-3.1v3.1a.729.729,0,0,1-1.459,0v-3.1h-3.1a.729.729,0,0,1,0-1.459h3.1v-3.1a.729.729,0,0,1,1.459,0v3.1h3.1a.729.729,0,0,1,0,1.459Zm0,0" transform="translate(-118.474 -118.474)" fill="#fafafa"/>
    </g>
  </g>
</svg>
